<?xml version="1.0" standalone="no"?>
<!DOCTYPE svg PUBLIC "-//W3C//DTD SVG 20010904//EN"
 "http://www.w3.org/TR/2001/REC-SVG-20010904/DTD/svg10.dtd">
<svg version="1.0" xmlns="http://www.w3.org/2000/svg"
 width="1494.000000pt" height="455.000000pt" viewBox="0 0 1494.000000 455.000000"
 preserveAspectRatio="xMidYMid meet">

<g transform="translate(0.000000,455.000000) scale(0.100000,-0.100000)"
fill="#000000" stroke="none">
<path d="M0 2275 l0 -2275 7470 0 7470 0 0 2275 0 2275 -7470 0 -7470 0 0
-2275z m2699 913 c11 -32 12 -125 1 -154 -11 -28 -54 -34 -64 -8 -3 9 -6 46
-6 84 0 38 3 75 6 84 9 25 53 20 63 -6z m1641 -273 l0 -235 88 0 c85 0 89 1
142 38 30 21 186 127 347 235 l291 197 97 0 c55 0 94 -4 91 -9 -6 -9 -87 -66
-528 -371 -115 -78 -208 -146 -208 -149 1 -3 172 -125 381 -271 l381 -265
-101 -3 -101 -3 -208 142 c-114 78 -271 187 -349 241 l-142 98 -90 0 -91 0 0
-240 0 -240 -70 0 -70 0 0 528 c0 291 3 532 7 535 3 4 35 7 70 7 l63 0 0 -235z
m2261 -267 c161 -277 302 -518 312 -536 l19 -33 -82 3 -82 3 -65 118 -64 117
-419 0 -419 0 -64 -117 -65 -118 -82 -3 c-45 -2 -80 1 -77 5 2 4 74 127 159
273 85 146 223 383 307 528 l154 262 87 0 88 0 293 -502z m1409 492 c190 -15
271 -46 314 -120 19 -31 21 -52 21 -175 0 -122 -3 -146 -21 -186 -23 -50 -72
-93 -117 -104 l-28 -8 38 -17 c89 -41 105 -82 111 -287 l4 -163 -70 0 -71 0
-3 164 c-3 149 -5 167 -24 193 -40 53 -62 56 -511 61 l-413 4 0 -211 0 -211
-70 0 -70 0 0 528 c0 291 3 532 7 535 10 11 762 8 903 -3z m1710 -50 l0 -60
-265 0 -265 0 0 -475 0 -475 -70 0 -70 0 0 475 0 475 -265 0 -265 0 0 60 0 60
600 0 600 0 0 -60z m1398 0 c3 -48 0 -57 -21 -75 -14 -11 -246 -200 -516 -420
l-492 -400 526 -3 525 -2 0 -55 0 -55 -625 0 -625 0 0 54 0 55 443 362 c243
200 473 388 510 418 l68 56 -486 3 -485 2 0 60 0 60 588 -2 587 -3 3 -55z
m965 23 c45 -72 597 -1021 597 -1027 0 -3 -35 -6 -77 -6 l-78 0 -65 120 -65
120 -420 0 -420 0 -65 -120 -64 -120 -78 0 c-43 0 -78 3 -78 6 0 5 551 953
597 1027 l23 37 85 0 85 0 23 -37z m-8160 -24 c6 -9 8 -23 4 -32 -3 -8 -76
-43 -164 -77 -87 -34 -163 -66 -169 -71 -6 -5 -14 -24 -17 -42 -3 -17 -31
-135 -62 -262 -30 -126 -74 -309 -97 -405 -23 -96 -46 -181 -51 -187 -5 -7
-17 -13 -27 -13 -46 0 -44 15 43 376 46 192 83 350 83 351 -1 1 -39 -4 -85
-10 -77 -10 -85 -9 -97 7 -9 13 -10 24 -4 37 10 18 19 21 135 39 l71 11 19 77
20 77 175 72 c96 39 184 71 194 70 10 -1 24 -9 29 -18z m-1472 -46 c47 -45 59
-62 57 -82 -5 -47 -44 -40 -103 19 -59 58 -70 83 -48 105 22 23 30 19 94 -42z
m520 47 c10 -6 19 -18 19 -28 0 -21 -109 -132 -130 -132 -18 0 -40 19 -40 35
0 12 113 135 124 135 4 0 16 -5 27 -10z m-546 -315 l0 -30 -95 0 c-83 0 -95 2
-98 18 -8 43 3 48 100 45 l93 -3 0 -30z m442 -124 c247 -215 343 -301 343
-311 0 -22 -35 -39 -100 -50 -39 -7 -70 -15 -68 -20 2 -4 23 -51 47 -104 35
-75 42 -102 34 -114 -5 -9 -53 -37 -106 -61 -116 -53 -113 -55 -172 78 -22 50
-44 91 -48 91 -5 0 -33 -20 -64 -45 -104 -85 -103 -89 -103 325 0 359 2 375
41 368 10 -2 97 -73 196 -157z m234 143 c9 -11 10 -20 2 -32 -8 -14 -27 -17
-98 -17 -71 0 -90 3 -98 17 -8 12 -7 21 2 32 10 12 33 16 96 16 63 0 86 -4 96
-16z m-952 -163 c20 -37 -6 -50 -133 -66 -65 -8 -121 -17 -124 -19 -3 -4 132
-610 154 -688 5 -17 44 -18 637 -18 415 0 645 -4 670 -11 49 -13 115 -73 138
-124 25 -55 25 -145 -1 -194 -27 -54 -92 -106 -148 -121 -26 -6 -53 -14 -59
-16 -7 -2 -13 -11 -13 -20 0 -55 -83 -139 -164 -164 -47 -15 -132 -8 -174 14
-47 24 -99 83 -115 130 l-14 41 -149 3 -150 2 -12 -34 c-59 -163 -254 -218
-382 -108 -59 50 -84 103 -84 183 0 57 4 74 29 115 39 61 109 110 174 119 108
15 218 -50 257 -150 19 -52 15 -51 192 -47 109 3 132 6 132 18 0 46 65 127
130 159 51 26 153 25 207 -3 49 -25 102 -85 119 -133 10 -30 15 -34 46 -33 75
2 135 80 124 162 -6 48 -35 95 -69 115 -17 9 -183 13 -694 17 -369 3 -674 8
-678 12 -7 6 -37 130 -145 598 -43 185 -49 225 -38 236 13 12 199 41 285 43
32 1 45 -4 52 -18z m349 -23 c22 -22 12 -45 -47 -101 -33 -32 -62 -57 -64 -57
-22 0 -37 16 -37 40 0 21 14 40 56 79 58 53 72 59 92 39z m-319 -445 c6 -21
15 -59 22 -85 l11 -48 107 0 c110 0 123 -3 134 -32 14 -38 -17 -48 -151 -48
-70 0 -132 4 -139 8 -6 4 -23 54 -38 111 -28 111 -25 131 21 131 18 0 25 -8
33 -37z m2058 -391 c39 -21 54 -43 67 -104 6 -26 4 -28 -29 -28 -32 0 -35 2
-35 29 0 33 -20 58 -54 67 -13 3 -93 4 -179 2 -197 -4 -186 6 -187 -179 0
-193 -11 -184 210 -184 168 0 172 0 191 24 10 13 19 36 19 52 0 26 3 29 34 29
34 0 35 0 29 -37 -7 -47 -25 -77 -60 -100 -23 -16 -52 -18 -214 -18 -175 0
-189 1 -216 21 -50 37 -58 66 -58 214 0 113 3 140 18 163 41 63 100 78 288 73
112 -3 143 -8 176 -24z m1275 5 c42 -18 64 -47 73 -99 7 -37 7 -38 -24 -38
-32 0 -35 3 -45 51 -9 41 -42 49 -212 49 -152 0 -155 0 -180 -25 -25 -25 -25
-27 -22 -165 2 -118 6 -142 21 -157 16 -16 38 -18 186 -18 189 0 207 6 213 69
3 27 7 31 36 34 28 3 32 0 32 -20 -1 -45 -36 -104 -71 -119 -50 -21 -372 -20
-413 1 -57 29 -69 67 -69 214 -1 179 20 216 130 236 73 14 302 5 345 -13z
m6108 1 c56 -24 71 -49 83 -135 13 -105 2 -223 -26 -264 -36 -52 -76 -60 -282
-57 -201 3 -225 10 -259 67 -16 29 -19 53 -19 165 -1 226 29 248 323 242 101
-2 156 -8 180 -18z m-7162 -195 l2 -203 180 0 180 0 0 -25 0 -25 -215 0 -215
0 0 223 c0 123 3 227 7 231 4 4 19 6 33 4 l25 -3 3 -202z m490 -25 l2 -228
-35 0 -35 0 0 223 c0 123 3 227 7 231 4 4 19 6 33 4 l25 -3 3 -227z m792 132
l0 -100 37 0 c29 0 63 18 184 100 128 87 153 100 189 100 23 0 39 -4 36 -9 -3
-5 -73 -55 -156 -112 -82 -56 -150 -105 -150 -108 0 -3 73 -57 162 -118 l161
-113 -47 0 c-44 0 -59 8 -193 100 -123 84 -153 100 -185 100 l-38 0 0 -100 0
-100 -30 0 -30 0 0 230 0 230 30 0 30 0 0 -100z m858 -2 l3 -98 36 0 c30 0 64
19 184 100 119 81 154 100 183 100 20 0 36 -4 36 -8 0 -5 -67 -55 -150 -112
-82 -57 -150 -106 -150 -109 0 -4 73 -57 162 -118 l161 -113 -47 0 c-44 0 -59
8 -193 100 -123 84 -153 100 -185 100 l-38 0 0 -100 0 -100 -30 0 -30 0 0 231
0 230 28 -3 27 -3 3 -97z m968 -120 c71 -122 131 -225 132 -230 2 -4 -12 -8
-32 -8 -31 0 -37 5 -62 50 l-27 50 -178 0 -178 0 -28 -50 c-25 -44 -32 -50
-60 -50 -18 0 -33 3 -33 6 0 4 151 266 240 417 19 32 27 37 59 37 l37 0 130
-222z m687 199 c47 -20 60 -54 54 -131 -4 -46 -11 -64 -33 -87 -15 -16 -23
-29 -16 -29 22 0 42 -58 42 -125 l0 -65 -29 0 c-29 0 -29 0 -33 70 -6 105 -3
103 -218 108 l-180 4 0 -91 0 -91 -35 0 -35 0 0 223 c0 123 3 227 8 231 4 5
104 6 222 4 171 -3 223 -8 253 -21z m637 -7 l0 -30 -110 0 -110 0 0 -200 0
-200 -35 0 -35 0 0 200 0 200 -110 0 -110 0 0 30 0 30 255 0 255 0 0 -30z
m595 -1 c0 -23 -28 -49 -171 -165 -94 -77 -190 -156 -215 -176 l-44 -38 223 0
222 0 0 -25 0 -25 -270 0 -270 0 0 23 c0 19 46 61 213 198 l213 174 -203 3
-203 2 0 30 0 30 253 -2 252 -3 0 -26z m534 -194 c72 -123 131 -227 131 -230
0 -3 -15 -5 -32 -5 -29 0 -36 6 -61 50 l-28 50 -179 0 -180 0 -25 -50 c-23
-46 -28 -50 -61 -50 -20 0 -34 4 -32 8 2 5 61 108 132 230 l129 222 38 0 37 0
131 -225z m941 203 c70 -31 75 -44 78 -202 3 -134 2 -143 -20 -176 -36 -53
-65 -59 -310 -59 l-218 -1 0 231 0 231 218 -4 c169 -3 225 -7 252 -20z m1140
-175 l205 -196 3 197 2 196 30 0 30 0 0 -230 0 -230 -41 0 c-39 0 -49 8 -252
196 l-212 196 -3 -196 -2 -196 -35 0 -35 0 0 223 c0 123 3 227 7 230 3 4 27 7
52 7 46 -1 46 -1 251 -197z m838 165 l3 -28 -200 0 -201 0 0 -70 0 -70 191 0
190 0 -3 -27 -3 -28 -187 -3 -188 -2 0 -75 0 -75 200 0 200 0 0 -25 0 -25
-230 0 -230 0 0 230 0 230 228 -2 227 -3 3 -27z m-6628 -375 c0 -5 3 -18 6
-30 6 -21 3 -23 -30 -23 -33 0 -36 2 -36 30 0 27 3 30 30 30 17 0 30 -3 30 -7z
m3960 -23 c0 -27 -3 -30 -30 -30 -27 0 -30 3 -30 30 0 27 3 30 30 30 27 0 30
-3 30 -30z m2780 0 c0 -27 -3 -30 -30 -30 -27 0 -30 3 -30 30 0 27 3 30 30 30
27 0 30 -3 30 -30z"/>
<path d="M6048 2746 c-93 -161 -168 -296 -168 -300 0 -3 153 -6 340 -6 187 0
340 3 340 6 0 10 -334 594 -340 594 -3 0 -80 -132 -172 -294z"/>
<path d="M7242 2823 l3 -208 405 1 c438 0 489 5 531 51 22 23 24 34 27 146 3
141 -4 162 -63 192 -38 19 -64 20 -473 23 l-432 3 2 -208z"/>
<path d="M11803 2747 l-172 -302 175 -3 c96 -1 251 -1 345 0 l169 3 -166 290
c-91 160 -169 295 -172 302 -4 7 -80 -116 -179 -290z"/>
<path d="M2709 2662 c-2 -9 -2 -117 1 -240 l5 -223 42 31 c66 49 79 42 132
-77 25 -56 49 -104 53 -108 5 -5 81 27 96 41 2 1 -17 48 -43 104 -53 117 -54
141 -7 152 105 26 113 6 -69 163 -219 189 -206 179 -210 157z"/>
<path d="M2195 1564 c-90 -47 -118 -130 -74 -221 26 -53 78 -83 144 -83 83 0
148 55 161 135 18 122 -123 226 -231 169z"/>
<path d="M2980 1569 c-118 -47 -135 -215 -30 -286 44 -30 131 -32 178 -3 102
63 95 228 -13 280 -44 21 -95 25 -135 9z"/>
<path d="M11204 1715 c-25 -25 -25 -27 -22 -165 2 -118 6 -142 21 -157 16 -16
39 -18 208 -18 242 0 229 -11 229 182 0 129 -1 135 -25 158 -24 25 -26 25
-205 25 -180 0 -181 0 -206 -25z"/>
<path d="M7326 1614 c-36 -64 -66 -121 -66 -125 0 -5 63 -9 140 -9 77 0 140 2
140 5 0 11 -135 245 -141 245 -4 0 -36 -52 -73 -116z"/>
<path d="M7840 1644 l0 -85 190 3 c127 2 193 7 201 15 6 6 12 37 13 68 2 84
-1 85 -221 85 l-183 0 0 -86z"/>
<path d="M9778 1611 c-38 -65 -68 -121 -68 -125 0 -3 63 -6 140 -6 79 0 140 4
140 9 0 12 -133 241 -140 241 -3 0 -35 -54 -72 -119z"/>
<path d="M10550 1554 l0 -175 196 3 c247 4 234 -6 234 175 0 118 -1 125 -25
148 -24 25 -26 25 -215 25 l-190 0 0 -176z"/>
</g>
</svg>
